<svg xmlns="http://www.w3.org/2000/svg" width="32" height="32" viewBox="0 0 32 32">
  <defs>
    <linearGradient id="gradient" x1="0%" y1="0%" x2="100%" y2="100%">
      <stop offset="0%" style="stop-color:#16a34a" />
      <stop offset="100%" style="stop-color:#22c55e" />
    </linearGradient>
  </defs>
  <circle cx="16" cy="16" r="14" fill="url(#gradient)" />
  <path d="M16 8C13.8 8 12 9.8 12 12C12 14.2 13.8 16 16 16C18.2 16 20 14.2 20 12C20 9.8 18.2 8 16 8ZM16 18C12.7 18 10 20.7 10 24H22C22 20.7 19.3 18 16 18Z" fill="white" />
  <path d="M8 14C6.9 14 6 14.9 6 16C6 17.1 6.9 18 8 18C9.1 18 10 17.1 10 16C10 14.9 9.1 14 8 14Z" fill="white" />
  <path d="M24 14C22.9 14 22 14.9 22 16C22 17.1 22.9 18 24 18C25.1 18 26 17.1 26 16C26 14.9 25.1 14 24 14Z" fill="white" />
</svg>